CSPredictedFLsDeGroote.mot
version=1
nRows=23
nColumns=39
inDegrees=no
endheader
time	tibant_l	tibpost_l	gasmed_l	gaslat_l	soleus_l	edl_l	ehl_l	fdl_l	fhl_l	perbrev_l	perlong_l	bflh_l	bfsh_l	recfem_l	semimem_l	semiten_l	vasint_l	vaslat_l	vasmed_l	tibant_r	tibpost_r	gasmed_r	gaslat_r	soleus_r	edl_r	ehl_r	fdl_r	fhl_r	perbrev_r	perlong_r	bflh_r	bfsh_r	recfem_r	semimem_r	semiten_r	vasint_r	vaslat_r	vasmed_r
24.73999977	0.36376581	0.38432395	0.53924596	0.52983302	0.39092669	0.50327986	0.46271148	0.49890575	0.46561301	0.23850895	0.47299409	0.39954937	0.23210064	0.49776757	0.39538929	0.44324693	0.28219816	0.29505593	0.27109715	0.36750248	0.38319802	0.53334868	0.52030134	0.38718286	0.50620115	0.46604207	0.49809477	0.46415180	0.23763615	0.47209132	0.41734186	0.22451791	0.49157441	0.40797004	0.45879233	0.29616985	0.30902109	0.28513390
24.75000000	0.36333677	0.38441768	0.53969681	0.53022993	0.39138073	0.50289214	0.46237439	0.49898770	0.46575916	0.23860124	0.47309554	0.39916342	0.23179665	0.49843028	0.39479661	0.44267079	0.28277874	0.29565239	0.27163789	0.36781082	0.38310120	0.53337461	0.52109957	0.38683873	0.50645876	0.46631160	0.49800524	0.46402025	0.23756771	0.47201353	0.41861856	0.22593997	0.48952886	0.40983182	0.46093795	0.29389554	0.30665702	0.28288406
24.76000023	0.36295095	0.38449648	0.54009551	0.53058034	0.39178872	0.50253814	0.46207806	0.49905980	0.46588907	0.23868358	0.47318497	0.39881039	0.23153798	0.49906680	0.39423022	0.44214883	0.28332812	0.29624471	0.27215415	0.36812958	0.38299990	0.53332460	0.52184910	0.38648036	0.50672531	0.46659049	0.49791145	0.46388286	0.23749647	0.47193265	0.41979685	0.22728583	0.48753083	0.41155389	0.46292323	0.29160640	0.30429348	0.28061152
24.77000046	0.36260778	0.38455993	0.54044169	0.53088045	0.39214885	0.50221866	0.46182358	0.49912024	0.46600202	0.23875424	0.47326252	0.39849633	0.23135690	0.49962646	0.39374483	0.44172215	0.28378913	0.29674527	0.27258262	0.36844113	0.38289967	0.53321642	0.52239382	0.38612744	0.50698602	0.46686324	0.49781856	0.46374711	0.23742634	0.47185317	0.42087755	0.22853893	0.48561418	0.41311470	0.46472350	0.28934911	0.30199173	0.27836704
24.78000069	0.36230633	0.38461018	0.54074019	0.53113252	0.39246041	0.50193632	0.46160737	0.49917006	0.46609929	0.23881298	0.47332802	0.39817125	0.23120244	0.50017005	0.39330834	0.44132778	0.28423280	0.29716605	0.27297950	0.36872384	0.38280770	0.53307706	0.52262604	0.38580495	0.50722283	0.46711093	0.49773321	0.46362272	0.23736231	0.47178066	0.42186394	0.22968350	0.48381013	0.41449940	0.46632195	0.28717396	0.29981315	0.27620521
24.79000092	0.36204296	0.38465112	0.54099697	0.53133941	0.39272723	0.50169146	0.46142215	0.49921241	0.46618366	0.23886144	0.47338256	0.39780641	0.23102863	0.50073487	0.39287323	0.44089299	0.28471014	0.29756302	0.27342573	0.36895135	0.38273296	0.53294259	0.52285987	0.38554382	0.50741351	0.46731040	0.49766377	0.46352175	0.23731047	0.47172207	0.42275840	0.23070332	0.48215133	0.41569969	0.46770886	0.28513846	0.29781914	0.27418679
24.79999924	0.36181128	0.38468695	0.54121751	0.53150344	0.39295673	0.50148165	0.46125883	0.49925098	0.46625894	0.23890154	0.47342831	0.39727762	0.23077814	0.50143516	0.39229757	0.44028139	0.28536990	0.29814363	0.27413040	0.36909381	0.38268584	0.53285891	0.52312899	0.38537964	0.50753295	0.46743533	0.49761993	0.46345815	0.23727790	0.47168523	0.42355913	0.23158079	0.48067603	0.41671249	0.46887988	0.28331003	0.29607138	0.27238035
24.80999947	0.36160791	0.38471904	0.54140705	0.53162920	0.39315253	0.50130326	0.46111304	0.49928704	0.46632642	0.23893493	0.47346646	0.39656588	0.23044112	0.50229830	0.39154443	0.43945748	0.28624064	0.29896608	0.27512783	0.36912382	0.38267586	0.53287131	0.52345908	0.38534498	0.50755817	0.46746168	0.49761066	0.46344468	0.23727101	0.47167745	0.42425942	0.23229861	0.47942695	0.41753858	0.46983445	0.28176147	0.29462704	0.27085727
24.81999969	0.36142692	0.38475227	0.54157805	0.53172839	0.39332253	0.50115192	0.46097556	0.49932274	0.46638918	0.23896502	0.47349966	0.39570361	0.23004901	0.50329179	0.39065117	0.43847305	0.28727105	0.30000880	0.27636436	0.36902881	0.38270736	0.53300869	0.52385521	0.38545462	0.50747848	0.46737835	0.49763995	0.46348721	0.23729277	0.47170204	0.42484826	0.23284578	0.47843960	0.41818273	0.47057602	0.28055105	0.29352304	0.26967236
24.82999992	0.36126468	0.38478798	0.54173189	0.53180426	0.39347354	0.50102246	0.46084398	0.49935785	0.46644756	0.23899363	0.47353029	0.39486423	0.22974250	0.50416893	0.38983476	0.43757769	0.28817767	0.30105457	0.27755910	0.36882460	0.38277468	0.53326440	0.52430290	0.38568947	0.50730729	0.46719927	0.49770251	0.46357810	0.23733938	0.47175473	0.42531130	0.23322552	0.47772735	0.41865313	0.47111225	0.27969742	0.29275849	0.26884022
24.84000015	0.36112463	0.38482469	0.54186171	0.53185374	0.39360419	0.50091571	0.46072340	0.49938977	0.46649915	0.23902014	0.47355789	0.39408249	0.22957413	0.50485170	0.38916430	0.43688643	0.28887767	0.30202055	0.27859873	0.36855999	0.38286114	0.53358662	0.52474844	0.38599211	0.50708556	0.46696737	0.49778280	0.46369496	0.23739946	0.47182274	0.42563197	0.23345809	0.47727734	0.41895896	0.47145253	0.27916983	0.29229206	0.26832756
24.85000038	0.36100671	0.38486379	0.54197156	0.53188443	0.39371741	0.50082862	0.46061379	0.49941614	0.46654248	0.23904648	0.47358254	0.39351919	0.22955590	0.50524199	0.38881296	0.43653199	0.28920928	0.30258265	0.27916014	0.36830327	0.38294417	0.53389692	0.52512282	0.38628393	0.50687063	0.46674252	0.49785984	0.46380737	0.23745742	0.47188839	0.42579445	0.23357436	0.47706097	0.41910717	0.47160438	0.27890489	0.29205963	0.26807061
24.86000061	0.36090502	0.38490665	0.54207087	0.53190881	0.39382005	0.50075477	0.46051148	0.49943700	0.46657872	0.23907401	0.47360572	0.39292532	0.22946152	0.50577104	0.38848689	0.43621749	0.28962126	0.30303162	0.27959752	0.36811858	0.38300341	0.53411984	0.52536231	0.38649273	0.50671613	0.46658087	0.49791470	0.46388760	0.23749892	0.47193545	0.42578906	0.23360448	0.47704852	0.41910243	0.47157338	0.27883613	0.29199952	0.26800397
24.87000084	0.36083418	0.38494372	0.54214227	0.53192258	0.39389542	0.50070429	0.46043405	0.49944925	0.46660256	0.23909694	0.47362316	0.39213040	0.22915292	0.50674486	0.38795829	0.43573454	0.29046512	0.30367854	0.28027841	0.36804843	0.38302580	0.53420514	0.52543128	0.38657182	0.50665742	0.46651947	0.49793544	0.46391797	0.23751464	0.47195327	0.42561841	0.23357014	0.47721452	0.41895244	0.47136903	0.27891448	0.29206803	0.26807991
24.87999916	0.36078843	0.38497138	0.54219282	0.53193164	0.39394465	0.50067240	0.46038079	0.49945536	0.46661729	0.23911375	0.47363454	0.39088985	0.22846526	0.50845206	0.38699201	0.43478119	0.29209626	0.30479732	0.28155974	0.36810964	0.38300627	0.53413266	0.52530873	0.38650283	0.50670862	0.46657303	0.49791735	0.46389148	0.23750094	0.47193772	0.42529064	0.23347674	0.47755131	0.41866124	0.47099647	0.27912739	0.29225475	0.26828638
24.88999939	0.36071336	0.38500503	0.54228377	0.53197390	0.39402145	0.50061584	0.46030039	0.49947092	0.46664405	0.23913714	0.47365391	0.38936168	0.22739641	0.51076740	0.38568547	0.43331733	0.29443094	0.30623874	0.28331417	0.36830249	0.38294441	0.53390050	0.52499455	0.38628480	0.50686997	0.46674183	0.49786004	0.46380770	0.23745760	0.47188860	0.42482561	0.23332377	0.47804850	0.41824159	0.47047091	0.27947494	0.29256123	0.26862389
24.89999962	0.36054909	0.38505676	0.54246616	0.53207535	0.39418018	0.50048810	0.46013984	0.49951428	0.46670604	0.23917523	0.47369424	0.38779864	0.22606760	0.51332611	0.38424692	0.43152034	0.29721549	0.30787718	0.28545138	0.36862573	0.38283974	0.53350687	0.52449000	0.38591707	0.50714064	0.46702498	0.49776292	0.46366602	0.23738457	0.47180587	0.42424992	0.23311284	0.47868589	0.41771460	0.46981689	0.27995175	0.29298505	0.26908785
24.90999985	0.36025625	0.38513497	0.54275721	0.53222710	0.39445823	0.50025904	0.45986325	0.49959713	0.46681744	0.23923436	0.47376168	0.38680950	0.22488731	0.51517355	0.38335079	0.43004575	0.29952055	0.30906931	0.28722408	0.36909047	0.38268694	0.53293318	0.52378482	0.38538352	0.50753015	0.46743241	0.49762097	0.46345964	0.23727866	0.47168609	0.42359534	0.23285761	0.47942320	0.41711149	0.46907103	0.28052458	0.29349917	0.26964656
24.92000008	0.35976568	0.38526034	0.54320937	0.53243744	0.39492422	0.49987224	0.45940998	0.49973521	0.46700263	0.23932813	0.47387192	0.38660014	0.22396837	0.51589292	0.38320535	0.42908710	0.30086559	0.30944100	0.28814480	0.36972561	0.38247371	0.53213853	0.52285421	0.38464472	0.50806338	0.46799004	0.49742240	0.46317229	0.23713216	0.47152081	0.42289552	0.23258623	0.48020235	0.41647086	0.46827847	0.28112826	0.29404667	0.27023673
24.93000031	0.35905942	0.38544214	0.54382533	0.53269279	0.39559904	0.49931157	0.45875949	0.49993071	0.46726635	0.23946157	0.47402889	0.38726228	0.22341965	0.51543111	0.38367635	0.42872944	0.30108339	0.30907997	0.28816187	0.37056136	0.38218519	0.53107768	0.52166408	0.38365561	0.50876653	0.46872517	0.49715289	0.46278474	0.23693624	0.47130042	0.42217922	0.23233177	0.48096642	0.41582757	0.46748009	0.28168881	0.29456016	0.27078602
24.94000053	0.35824251	0.38564485	0.54447639	0.53290248	0.39637315	0.49865746	0.45801392	0.50015181	0.46756712	0.23960759	0.47420385	0.38844806	0.22314841	0.51423866	0.38438821	0.42882752	0.30048919	0.30845696	0.28765240	0.37158263	0.38181996	0.52975988	0.52023363	0.38242015	0.50962818	0.46962574	0.49681056	0.46229613	0.23669186	0.47102660	0.42146331	0.23211493	0.48168665	0.41519824	0.46669468	0.28216210	0.29499739	0.27125061
24.95000076	0.35744154	0.38583288	0.54502916	0.53297389	0.39712161	0.49800640	0.45729330	0.50035846	0.46785510	0.23974204	0.47436771	0.38961780	0.22296476	0.51300323	0.38486114	0.42901185	0.29963392	0.30810919	0.28707954	0.37268162	0.38141081	0.52831334	0.51868832	0.38105702	0.51055861	0.47059777	0.49642560	0.46175107	0.23642263	0.47072631	0.42074895	0.23192984	0.48238000	0.41457102	0.46590710	0.28256282	0.29537016	0.27164453
24.95999908	0.35674849	0.38598371	0.54540348	0.53286147	0.39775538	0.49743184	0.45668349	0.50052166	0.46809703	0.23984748	0.47450447	0.39022040	0.22258949	0.51250553	0.38452435	0.42874110	0.29921040	0.30853420	0.28702375	0.37366280	0.38103083	0.52699298	0.51726931	0.37980974	0.51139230	0.47146830	0.49606675	0.46124694	0.23617658	0.47045314	0.42002365	0.23174165	0.48310682	0.41390795	0.46507102	0.28296706	0.29574853	0.27204239
